<svg id="Слой_1" data-name="Слой 1" xmlns="http://www.w3.org/2000/svg" viewBox="0 0 68.38 68.5">
  <defs>
    <style>
      .cls-1 {
        fill: #fcc200;
      }
    </style>
  </defs>
  <title>orders-icon</title>
  <g>
    <path class="cls-1" d="M1229.08,31.06l-33.95-6.75c-0.19.5-.36,0.94-0.52,1.38q-5.57,15.22-11.14,30.44a6.77,6.77,0,0,1-.82,1.67,2.44,2.44,0,0,1-3.11.77,2.39,2.39,0,0,1-1.32-3q2.26-6.59,4.63-13.14,3.92-10.76,7.92-21.49c0.74-2,1.63-2.52,3.7-2.11q18.66,3.71,37.31,7.47c3.36,0.68,3.91,1.62,2.86,4.85-4.65,14.31-9.29,28.64-15.06,42.56a40.88,40.88,0,0,1-3.5,6.62,14.46,14.46,0,0,1-18.34,5.58c-6.61-2.82-13.13-5.86-19.7-8.81-1.22-.55-2.45-1.09-3.66-1.66a12.73,12.73,0,0,1-7.5-13.79c0.13-.92.3-1.84,0.47-2.9,2.61,1,5.1,2,7.58,3,7.08,2.85,14.16,5.73,21.25,8.55a1.77,1.77,0,0,1,1.3,1.85,22.31,22.31,0,0,0,.59,4.23c1.44,6,7.71,6.56,11.17,3.55a16,16,0,0,0,4.09-5.53q4.14-9.66,7.7-19.56c2.66-7.35,5-14.8,7.53-22.2C1228.73,32.2,1228.87,31.73,1229.08,31.06Z" transform="translate(-1166.76 -18.69)"/>
    <path class="cls-1" d="M1208.89,66.41c-0.6-.12-0.92-0.15-1.21-0.25-3.68-1.21-7.36-2.39-11-3.67-1.77-.62-2.41-1.91-1.87-3.41s1.86-2,3.52-1.45c3.69,1.18,7.39,2.34,11,3.63,2.19,0.78,2.69,3,1.07,4.4A6.05,6.05,0,0,1,1208.89,66.41Z" transform="translate(-1166.76 -18.69)"/>
    <path class="cls-1" d="M1212.88,55.6a7.21,7.21,0,0,1-1-.2c-3.65-1.19-7.3-2.36-10.94-3.59A2.53,2.53,0,0,1,1199,49a2.37,2.37,0,0,1,2.93-2.17C1206,48,1210,49.33,1214,50.69a2.45,2.45,0,0,1,1.55,2.93A2.53,2.53,0,0,1,1212.88,55.6Z" transform="translate(-1166.76 -18.69)"/>
    <path class="cls-1" d="M1217.31,44.07c-0.85-.21-2-0.46-3.1-0.77-2.87-.79-5.75-1.57-8.61-2.42a2.52,2.52,0,0,1-1.89-3.18,2.48,2.48,0,0,1,3.22-1.78c3.83,1,7.65,2.05,11.45,3.17a2.31,2.31,0,0,1,1.85,3A2.53,2.53,0,0,1,1217.31,44.07Z" transform="translate(-1166.76 -18.69)"/>
    <path class="cls-1" d="M1196.83,47a2.66,2.66,0,0,1-2.67,2.62,2.83,2.83,0,0,1-2.91-2.7,2.71,2.71,0,0,1,2.67-2.62A2.82,2.82,0,0,1,1196.83,47Z" transform="translate(-1166.76 -18.69)"/>
    <path class="cls-1" d="M1189.76,59.71a2.59,2.59,0,0,1-2.68-2.73,2.62,2.62,0,0,1,2.75-2.52,2.74,2.74,0,0,1,2.75,2.84A2.52,2.52,0,0,1,1189.76,59.71Z" transform="translate(-1166.76 -18.69)"/>
    <path class="cls-1" d="M1200.93,36.07a2.58,2.58,0,0,1-2.74,2.51,2.76,2.76,0,0,1-2.75-2.84,2.58,2.58,0,0,1,2.68-2.42A2.65,2.65,0,0,1,1200.93,36.07Z" transform="translate(-1166.76 -18.69)"/>
  </g>
</svg>
